<?xml version="1.0" encoding="UTF-8" standalone="no"?>
<svg
   xmlns:dc="http://purl.org/dc/elements/1.1/"
   xmlns:cc="http://creativecommons.org/ns#"
   xmlns:rdf="http://www.w3.org/1999/02/22-rdf-syntax-ns#"
   xmlns:svg="http://www.w3.org/2000/svg"
   xmlns="http://www.w3.org/2000/svg"
   xmlns:sodipodi="http://sodipodi.sourceforge.net/DTD/sodipodi-0.dtd"
   xmlns:inkscape="http://www.inkscape.org/namespaces/inkscape"
   inkscape:export-ydpi="937.51001"
   inkscape:export-xdpi="937.51001"
   inkscape:export-filename="C:\Users\PC\Shared with me\NonShared\deepcheck\08. Branding and Graphics\Logo\deepcheck_Logo-high.png"
   inkscape:version="1.0 (4035a4fb49, 2020-05-01)"
   sodipodi:docname="deepcheck_Logo.svg"
   viewBox="0 0 358.39599 129.912"
   height="129.912"
   width="358.396"
   xml:space="preserve"
   id="svg10"
   version="1.1"><metadata
     id="metadata16"><rdf:RDF><cc:Work
         rdf:about=""><dc:format>image/svg+xml</dc:format><dc:type
           rdf:resource="http://purl.org/dc/dcmitype/StillImage" /><dc:title></dc:title></cc:Work></rdf:RDF></metadata><defs
     id="defs14"><clipPath
       id="clipPath28"
       clipPathUnits="userSpaceOnUse"><path
         id="path26"
         d="M 0,1018.781 H 595.276 V 0 H 0 Z" /></clipPath><clipPath
       id="clipPath248"
       clipPathUnits="userSpaceOnUse"><path
         id="path246"
         d="M 0,1018.781 H 595.276 V 0 H 0 Z" /></clipPath><clipPath
       id="clipPath276"
       clipPathUnits="userSpaceOnUse"><path
         id="path274"
         d="M 0,1018.781 H 595.276 V 0 H 0 Z" /></clipPath><clipPath
       id="clipPath312"
       clipPathUnits="userSpaceOnUse"><path
         id="path310"
         d="M 0,1018.781 H 595.276 V 0 H 0 Z" /></clipPath><clipPath
       id="clipPath350"
       clipPathUnits="userSpaceOnUse"><path
         id="path348"
         d="M 0,1018.781 H 595.276 V 0 H 0 Z" /></clipPath><clipPath
       id="clipPath430"
       clipPathUnits="userSpaceOnUse"><path
         id="path428"
         d="M 0,1018.781 H 595.276 V 0 H 0 Z" /></clipPath></defs><sodipodi:namedview
     inkscape:current-layer="g18"
     inkscape:window-maximized="1"
     inkscape:window-y="-7"
     inkscape:window-x="-7"
     inkscape:cy="-19.265731"
     inkscape:cx="224.07046"
     inkscape:zoom="1.7594728"
     showgrid="false"
     id="namedview12"
     inkscape:window-height="1010"
     inkscape:window-width="1920"
     inkscape:pageshadow="2"
     inkscape:pageopacity="0"
     guidetolerance="10"
     gridtolerance="10"
     objecttolerance="10"
     borderopacity="1"
     bordercolor="#666666"
     pagecolor="#ffffff" /><g
     transform="matrix(1.3333333,0,0,-1.3333333,-33.675999,896.53731)"
     inkscape:label="deepcheck_Logo"
     inkscape:groupmode="layer"
     id="g18"><path
       id="path422"
       style="fill:#ffffff;fill-opacity:1;fill-rule:nonzero;stroke:none"
       d="M 294.054,574.969 H 25.257 v 97.434 h 268.797 z" /><g
       transform="translate(83.228,629.932)"
       id="g432"><path
         id="path434"
         style="fill:#ffcd00;fill-opacity:1;fill-rule:nonzero;stroke:none"
         d="m 0,0 c -3.461,0.006 -6.271,-2.795 -6.277,-6.256 -0.005,-3.461 2.796,-6.271 6.257,-6.277 3.461,-0.006 6.271,2.796 6.276,6.257 C 6.262,-2.815 3.461,-0.005 0,0" /></g><g
       transform="translate(70.0498,629.932)"
       id="g436"><path
         id="path438"
         style="fill:#ffcd00;fill-opacity:1;fill-rule:nonzero;stroke:none"
         d="m 0,0 c -3.461,0.006 -6.271,-2.795 -6.277,-6.256 -0.005,-3.461 2.796,-6.271 6.257,-6.277 3.461,-0.006 6.271,2.796 6.276,6.257 C 6.262,-2.815 3.461,-0.005 0,0" /></g><g
       transform="translate(70.0298,630.6185)"
       id="g440"><path
         id="path442"
         style="fill:#ffcd00;fill-opacity:1;fill-rule:nonzero;stroke:none"
         d="M 0,0 C 3.46,-0.006 6.271,2.795 6.276,6.256 6.282,9.717 3.481,12.527 0.02,12.533 -3.441,12.538 -6.251,9.737 -6.257,6.276 -6.262,2.815 -3.461,0.005 0,0" /></g><g
       transform="translate(70.0088,616.7538)"
       id="g444"><path
         id="path446"
         style="fill:#ffcd00;fill-opacity:1;fill-rule:nonzero;stroke:none"
         d="m 0,0 c -3.461,0.005 -6.271,-2.795 -6.276,-6.256 -0.006,-3.461 2.795,-6.271 6.256,-6.277 3.461,-0.006 6.271,2.796 6.276,6.257 C 6.262,-2.816 3.461,-0.005 0,0" /></g><g
       transform="translate(83.208,630.6185)"
       id="g448"><path
         id="path450"
         style="fill:#ffcd00;fill-opacity:1;fill-rule:nonzero;stroke:none"
         d="M 0,0 C 3.461,-0.006 6.271,2.795 6.276,6.256 6.282,9.717 3.481,12.527 0.02,12.533 -3.441,12.538 -6.251,9.737 -6.256,6.276 -6.262,2.815 -3.461,0.005 0,0" /></g><g
       transform="translate(83.228,616.7538)"
       id="g452"><path
         id="path454"
         style="fill:#ffcd00;fill-opacity:1;fill-rule:nonzero;stroke:none"
         d="m 0,0 c -3.461,0.005 -6.271,-2.795 -6.276,-6.256 -0.006,-3.461 2.795,-6.271 6.256,-6.277 3.461,-0.006 6.271,2.796 6.276,6.257 C 6.262,-2.816 3.461,-0.005 0,0" /></g><g
       transform="translate(56.8711,629.932)"
       id="g456"><path
         id="path458"
         style="fill:#ffcd00;fill-opacity:1;fill-rule:nonzero;stroke:none"
         d="m 0,0 c -3.461,0.006 -6.271,-2.795 -6.276,-6.256 -0.006,-3.461 2.795,-6.271 6.256,-6.277 3.461,-0.006 6.271,2.796 6.277,6.257 C 6.262,-2.815 3.461,-0.005 0,0" /></g><g
       transform="translate(56.8511,630.6185)"
       id="g460"><path
         id="path462"
         style="fill:#ffcd00;fill-opacity:1;fill-rule:nonzero;stroke:none"
         d="M 0,0 C 3.461,-0.006 6.271,2.795 6.277,6.256 6.282,9.717 3.481,12.527 0.02,12.533 -3.441,12.538 -6.251,9.737 -6.256,6.276 -6.262,2.815 -3.461,0.005 0,0" /></g><g
       transform="translate(56.8306,616.7538)"
       id="g464"><path
         id="path466"
         style="fill:#ffcd00;fill-opacity:1;fill-rule:nonzero;stroke:none"
         d="m 0,0 c -3.461,0.005 -6.271,-2.795 -6.277,-6.256 -0.005,-3.461 2.796,-6.271 6.257,-6.277 3.461,-0.006 6.271,2.796 6.276,6.257 C 6.262,-2.816 3.461,-0.005 0,0" /></g><g
       transform="translate(107.1265,630.1962)"
       id="g468"><path
         id="path470"
         style="fill:#004b87;fill-opacity:1;fill-rule:nonzero;stroke:none"
         d="M 0,0 C -2.366,0 -3.963,-0.496 -4.79,-1.488 -5.617,-2.48 -6.03,-4.3 -6.03,-6.946 c 0,-2.571 0.362,-4.358 1.088,-5.363 0.725,-1.005 2.079,-1.507 4.064,-1.507 0.941,0 1.845,0.121 2.71,0.362 0.865,0.242 1.666,0.605 2.404,1.088 V -0.763 C 3.625,-0.509 2.977,-0.318 2.29,-0.19 1.603,-0.063 0.839,0 0,0 m 4.236,8.97 h 3.13 v -25.381 h -2.71 l -0.229,1.755 H 4.351 c -0.739,-0.687 -1.635,-1.202 -2.691,-1.546 -1.056,-0.343 -2.271,-0.515 -3.645,-0.515 -2.57,0 -4.408,0.763 -5.515,2.291 -1.106,1.526 -1.66,4.019 -1.66,7.48 0,3.46 0.674,5.954 2.023,7.48 1.348,1.527 3.6,2.291 6.755,2.291 0.891,0 1.724,-0.071 2.5,-0.21 C 2.894,2.475 3.6,2.277 4.236,2.023 Z" /></g><g
       transform="translate(131.6284,625.5785)"
       id="g472"><path
         id="path474"
         style="fill:#004b87;fill-opacity:1;fill-rule:nonzero;stroke:none"
         d="m 0,0 c -0.025,1.679 -0.395,2.869 -1.107,3.568 -0.712,0.7 -1.908,1.05 -3.587,1.05 -1.884,0 -3.213,-0.401 -3.989,-1.202 -0.776,-0.802 -1.164,-2.208 -1.164,-4.218 h 9.809 c 0,0.051 0.006,0.172 0.019,0.363 C -0.006,-0.249 0,-0.102 0,0 m 2.061,-8.129 v -2.634 c -0.662,-0.357 -1.635,-0.668 -2.919,-0.935 -1.286,-0.267 -2.59,-0.401 -3.913,-0.401 -2.952,0 -5.063,0.763 -6.335,2.29 -1.273,1.527 -1.909,4.046 -1.909,7.557 0,3.383 0.661,5.845 1.985,7.385 1.323,1.539 3.435,2.309 6.336,2.309 2.696,0 4.63,-0.605 5.801,-1.813 C 2.277,4.42 2.863,2.404 2.863,-0.42 2.863,-0.929 2.849,-1.4 2.825,-1.832 2.799,-2.265 2.748,-2.787 2.672,-3.397 H -9.847 c 0.025,-2.087 0.451,-3.575 1.279,-4.466 0.826,-0.891 2.257,-1.335 4.293,-1.335 1.094,0 2.239,0.101 3.436,0.305 1.195,0.204 2.162,0.458 2.9,0.764" /></g><g
       transform="translate(150.6353,625.5785)"
       id="g476"><path
         id="path478"
         style="fill:#004b87;fill-opacity:1;fill-rule:nonzero;stroke:none"
         d="m 0,0 c -0.025,1.679 -0.395,2.869 -1.107,3.568 -0.712,0.7 -1.908,1.05 -3.588,1.05 -1.883,0 -3.212,-0.401 -3.988,-1.202 -0.776,-0.802 -1.164,-2.208 -1.164,-4.218 h 9.809 c 0,0.051 0.005,0.172 0.019,0.363 C -0.006,-0.249 0,-0.102 0,0 m 2.061,-8.129 v -2.634 c -0.662,-0.357 -1.635,-0.668 -2.92,-0.935 -1.285,-0.267 -2.589,-0.401 -3.912,-0.401 -2.952,0 -5.063,0.763 -6.335,2.29 -1.273,1.527 -1.909,4.046 -1.909,7.557 0,3.383 0.661,5.845 1.985,7.385 1.322,1.539 3.435,2.309 6.335,2.309 2.697,0 4.631,-0.605 5.801,-1.813 C 2.277,4.42 2.862,2.404 2.862,-0.42 2.862,-0.929 2.849,-1.4 2.824,-1.832 2.798,-2.265 2.748,-2.787 2.671,-3.397 H -9.847 c 0.025,-2.087 0.451,-3.575 1.279,-4.466 0.826,-0.891 2.257,-1.335 4.293,-1.335 1.094,0 2.239,0.101 3.435,0.305 1.196,0.204 2.162,0.458 2.901,0.764" /></g><g
       transform="translate(170.939,623.2499)"
       id="g480"><path
         id="path482"
         style="fill:#004b87;fill-opacity:1;fill-rule:nonzero;stroke:none"
         d="m 0,0 c 0,2.595 -0.363,4.402 -1.088,5.42 -0.725,1.017 -2.08,1.526 -4.064,1.526 -0.942,0 -1.839,-0.133 -2.691,-0.4 -0.853,-0.268 -1.66,-0.655 -2.424,-1.164 V -6.106 c 0.636,-0.255 1.291,-0.446 1.966,-0.573 0.674,-0.128 1.431,-0.191 2.271,-0.191 2.366,0 3.962,0.49 4.789,1.47 C -0.414,-4.421 0,-2.621 0,0 m -10.267,-15.267 h -3.129 V 9.389 h 2.709 l 0.191,-1.679 h 0.115 c 0.788,0.662 1.73,1.17 2.824,1.527 1.094,0.356 2.265,0.534 3.512,0.534 2.569,0 4.408,-0.764 5.514,-2.291 1.107,-1.526 1.66,-4.02 1.66,-7.48 0,-3.46 -0.674,-5.954 -2.022,-7.48 -1.349,-1.527 -3.601,-2.291 -6.756,-2.291 -0.941,0 -1.8,0.064 -2.576,0.191 -0.776,0.127 -1.457,0.318 -2.042,0.573 z" /></g><g
       transform="translate(191.3193,619.5477)"
       id="g484"><path
         id="path486"
         style="fill:#004b87;fill-opacity:1;fill-rule:nonzero;stroke:none"
         d="m 0,0 v -4.732 c -0.61,-0.382 -1.603,-0.713 -2.977,-0.993 -1.374,-0.279 -2.786,-0.42 -4.236,-0.42 -2.748,0 -4.676,0.732 -5.783,2.195 -1.107,1.463 -1.66,4.001 -1.66,7.615 0,3.612 0.712,6.15 2.138,7.613 1.424,1.464 3.918,2.195 7.48,2.195 0.865,0 1.642,-0.019 2.329,-0.057 0.687,-0.039 1.424,-0.109 2.213,-0.21 V 8.129 c -1.247,0.102 -2.15,0.16 -2.71,0.172 -0.56,0.013 -1.17,0.019 -1.832,0.019 -1.755,0 -2.843,-0.248 -3.263,-0.744 -0.42,-0.496 -0.63,-1.8 -0.63,-3.911 0,-1.909 0.172,-3.13 0.515,-3.665 0.344,-0.534 1.139,-0.801 2.386,-0.801 1.017,0 2.08,0.076 3.187,0.229 C -1.736,-0.42 -0.789,-0.229 0,0" /></g><g
       transform="translate(199.4106,613.785)"
       id="g488"><path
         id="path490"
         style="fill:#004b87;fill-opacity:1;fill-rule:nonzero;stroke:none"
         d="M 0,0 H -5.725 V 25.381 H 0 v -7.863 c 0.941,0.535 1.914,0.954 2.919,1.259 1.005,0.306 1.966,0.459 2.882,0.459 2.137,0 3.734,-0.509 4.79,-1.527 1.055,-1.018 1.584,-2.57 1.584,-4.656 V 0 H 6.45 v 12.29 c 0,0.635 -0.191,1.093 -0.573,1.374 -0.381,0.279 -0.992,0.419 -1.832,0.419 -0.636,0 -1.31,-0.057 -2.023,-0.172 C 1.31,13.797 0.635,13.65 0,13.473 Z" /></g><g
       transform="translate(222.9966,628.1356)"
       id="g492"><path
         id="path494"
         style="fill:#004b87;fill-opacity:1;fill-rule:nonzero;stroke:none"
         d="m 0,0 c -1.221,0 -2.048,-0.21 -2.48,-0.63 -0.434,-0.42 -0.649,-1.24 -0.649,-2.461 h 6.144 v 0.839 C 2.99,-1.361 2.78,-0.764 2.386,-0.458 1.991,-0.153 1.196,0 0,0 m 7.404,-8.778 v -4.542 c -0.61,-0.382 -1.641,-0.713 -3.091,-0.993 -1.451,-0.279 -2.977,-0.419 -4.58,-0.419 -3.053,0 -5.254,0.769 -6.603,2.309 -1.349,1.539 -2.023,4.039 -2.023,7.5 0,3.383 0.712,5.864 2.138,7.442 C -5.331,4.096 -3.079,4.885 0,4.885 3.002,4.885 5.121,4.294 6.354,3.11 7.588,1.927 8.206,-0.166 8.206,-3.168 8.206,-3.982 8.193,-4.631 8.167,-5.114 8.142,-5.598 8.092,-6.158 8.015,-6.793 H -3.129 c 0.025,-1.044 0.305,-1.77 0.839,-2.176 0.535,-0.407 1.514,-0.611 2.939,-0.611 1.222,0 2.468,0.082 3.74,0.248 1.272,0.165 2.277,0.35 3.015,0.554" /></g><g
       transform="translate(247.8428,619.5477)"
       id="g496"><path
         id="path498"
         style="fill:#004b87;fill-opacity:1;fill-rule:nonzero;stroke:none"
         d="m 0,0 v -4.732 c -0.61,-0.382 -1.603,-0.713 -2.977,-0.993 -1.374,-0.279 -2.786,-0.42 -4.236,-0.42 -2.748,0 -4.676,0.732 -5.783,2.195 -1.107,1.463 -1.66,4.001 -1.66,7.615 0,3.612 0.713,6.15 2.138,7.613 1.424,1.464 3.918,2.195 7.48,2.195 0.865,0 1.642,-0.019 2.329,-0.057 0.687,-0.039 1.424,-0.109 2.213,-0.21 V 8.129 c -1.247,0.102 -2.15,0.16 -2.71,0.172 -0.56,0.013 -1.17,0.019 -1.832,0.019 -1.755,0 -2.843,-0.248 -3.263,-0.744 -0.42,-0.496 -0.63,-1.8 -0.63,-3.911 0,-1.909 0.172,-3.13 0.515,-3.665 0.344,-0.534 1.139,-0.801 2.386,-0.801 1.017,0 2.08,0.076 3.187,0.229 C -1.736,-0.42 -0.789,-0.229 0,0" /></g><g
       transform="translate(255.9341,621.1127)"
       id="g500"><path
         id="path502"
         style="fill:#004b87;fill-opacity:1;fill-rule:nonzero;stroke:none"
         d="M 0,0 V -7.328 H -5.725 V 18.053 H 0 V 4.428 h 0.877 l 4.771,7.098 h 6.794 L 5.801,2.443 12.824,-7.328 H 5.839 L 0.877,0 Z" /></g></g></svg>
