<?xml version="1.0" encoding="UTF-8"?>
<svg xmlns="http://www.w3.org/2000/svg" xmlns:xlink="http://www.w3.org/1999/xlink" id="Gradient" viewBox="0 0 512 512" width="512" height="512"><defs><linearGradient id="linear-gradient" x1="256" y1="496" x2="256" y2="16" gradientUnits="userSpaceOnUse"><stop offset="0" stop-color="#12c0e7"/><stop offset="0.5" stop-color="#c271eb"/><stop offset="1" stop-color="#f44f5a"/></linearGradient></defs><path d="M88,496H456a8,8,0,0,0,8-8V96a8,8,0,0,0-2.343-5.657l-72-72A8,8,0,0,0,384,16H88a8,8,0,0,0-8,8V72H56a8,8,0,0,0-8,8V192a8,8,0,0,0,8,8H80V488A8,8,0,0,0,88,496ZM392,43.313,436.687,88H392ZM96,32H376V96a8,8,0,0,0,8,8h64V480H96V200h16V440a8,8,0,0,0,8,8H424a8,8,0,0,0,8-8V136a8,8,0,0,0-8-8H336V80a8,8,0,0,0-8-8H96ZM336,192V144h80V401.535L351.337,252.81a8,8,0,0,0-14.575-.216L277.347,378.85l-71.995-64.8a8,8,0,0,0-12.008,1.508L128,413.578V200H328A8,8,0,0,0,336,192Zm75.8,240H134.948l66.576-99.865,73.124,65.811a8,8,0,0,0,12.59-2.54l56.474-120ZM64,88H320v96H64Zm56,24a8,8,0,0,1-8,8v32a8,8,0,0,1-2.343,5.657l-8,8a8,8,0,0,1-11.314,0l-8-8a8,8,0,0,1,11.314-11.314L96,148.687V120a8,8,0,0,1,0-16h16A8,8,0,0,1,120,112Zm55.155-3.578A8,8,0,0,0,168,104H144a8,8,0,0,0-8,8v48a8,8,0,0,0,16,0v-8h16a8,8,0,0,0,7.155-4.422l8-16a8,8,0,0,0,0-7.156ZM163.056,136H152V120h11.056l4,8ZM216,120v8h8a8,8,0,0,1,0,16h-8v8h16a8,8,0,0,1,0,16H208a8,8,0,0,1-8-8V112a8,8,0,0,1,8-8h24a8,8,0,0,1,0,16Zm56,0v32h16a8,8,0,0,1,0-16h8a8,8,0,0,1,8,8v16a8,8,0,0,1-8,8H264a8,8,0,0,1-8-8V112a8,8,0,0,1,8-8h32a8,8,0,0,1,0,16ZM248,232a40,40,0,1,0,40,40A40.045,40.045,0,0,0,248,232Zm0,64a24,24,0,1,1,24-24A24.028,24.028,0,0,1,248,296Z" style="fill:url(#linear-gradient)"/></svg>
