<svg xmlns="http://www.w3.org/2000/svg" width="358.52" height="512.041" viewBox="0 0 358.52 512.041"><g transform="translate(-0.02 0.001)"><path d="M349.922,512.039H8.52a8.491,8.491,0,0,1-8.5-8.5v-495a8.494,8.494,0,0,1,8.5-8.5h264.5a8.4,8.4,0,0,1,6,2.5l76.8,76.8a8.564,8.564,0,0,1,2.5,6v418.1a8.365,8.365,0,0,1-8.4,8.6Zm-332.8-17.1h324.3v-406l-71.8-71.8H17.121Zm0,0" fill="#fc0101"/><path d="M349.922,93.941h-76.8a8.494,8.494,0,0,1-8.5-8.5V8.539a8.6,8.6,0,0,1,5.3-7.9,8.455,8.455,0,0,1,9.3,1.9l76.8,76.8a8.649,8.649,0,0,1,1.9,9.3,8.958,8.958,0,0,1-8,5.3Zm-68.3-17.1h47.7l-47.7-47.7Zm0,0" fill="#fc0101"/><path d="M349.922,512.039H8.52a8.491,8.491,0,0,1-8.5-8.5v-153.6a8.494,8.494,0,0,1,8.5-8.5h341.3a8.494,8.494,0,0,1,8.5,8.5v153.6a8.342,8.342,0,0,1-8.4,8.5Zm-332.8-17.1h324.3v-136.5H17.121Zm0,0" fill="#fc0101"/><path d="M59.719,477.941a8.494,8.494,0,0,1-8.5-8.5v-85.4a8.5,8.5,0,1,1,17,0v85.3a8.513,8.513,0,0,1-8.5,8.6Zm0,0" fill="#fc0101"/><path d="M298.719,392.539h-51.2a8.5,8.5,0,0,1,0-17h51.2a8.5,8.5,0,0,1,0,17Zm0,0" fill="#fc0101"/><path d="M298.719,435.242h-51.2a8.5,8.5,0,0,1,0-17h51.2a8.5,8.5,0,0,1,0,17Zm0,0" fill="#fc0101"/><path d="M247.52,477.941a8.494,8.494,0,0,1-8.5-8.5v-85.4a8.5,8.5,0,0,1,17,0v85.3a8.581,8.581,0,0,1-8.5,8.6Zm0,0" fill="#fc0101"/><path d="M280.121,221.141c-3.3-6.3-11.4-9.4-24.7-9.4a167.494,167.494,0,0,0-28.6,3c-15.6-16.3-31.8-40.1-43.3-63.5,1.8-7.5,3.5-15.1,4.8-22.7,1.5-8.9,3.3-19.1,1.4-28.1a21.8,21.8,0,0,0-5.3-9.5c-2.1-2.3-5-5.5-8.4-5.5a44.141,44.141,0,0,0-8.6,1.4c-4.9,1.6-7.5,5.4-9.6,10.2-6,13.9,2.2,37.5,10.7,55.8a563.176,563.176,0,0,1-32.2,90.3c-32.2,14.6-49.3,28.9-50.9,42.6-.6,5,.6,12.3,9.5,18.8a13.65,13.65,0,0,0,8.2,2.7c7.4,0,15-5.6,23.7-17.7,6.3-8.8,13.2-20.8,20.3-35.7a414.432,414.432,0,0,1,75.1-23.7c13.4,12.7,25.5,19.2,35.8,19.2,7.6,0,14.1-3.5,18.9-10,4.9-6.8,6-12.9,3.2-18.2Zm-176.8,71.9c-4-3-3.7-5-3.7-5.8.5-4.7,7.9-13,26.1-23-13.7,25.1-21.1,28.4-22.4,28.8Zm69.8-192.5c.4-.1,8.9,9.2.8,27C161.82,115.34,172.218,100.84,173.121,100.539Zm-17.6,134.6a579.472,579.472,0,0,0,22.7-63.5,287.134,287.134,0,0,0,32.5,46.6,416.284,416.284,0,0,0-55.2,16.9Zm109.7-4c-2.6,3.6-8.3,3.7-10.3,3.7-4.5,0-6.2-2.7-13.2-7.9a128.3,128.3,0,0,1,15.4-.9c7.6,0,9,1.1,10,1.7a11.045,11.045,0,0,1-1.9,3.4Zm0,0" fill="#fc0101"/><path d="M85.32,443.742h-25.6a8.494,8.494,0,0,1-8.5-8.5v-51.2a8.494,8.494,0,0,1,8.5-8.5h25.6a34.1,34.1,0,1,1,0,68.2Zm-17-17h17.1a17.1,17.1,0,0,0,0-34.2H68.32Zm0,0" fill="#fc0101"/><path d="M162.121,477.941h-8.5a8.494,8.494,0,0,1-8.5-8.5v-85.4a8.494,8.494,0,0,1,8.5-8.5h8.5a51.2,51.2,0,0,1,0,102.4Zm0-85.4v68.3a34.15,34.15,0,0,0,0-68.3Zm0,0" fill="#fc0101"/></g></svg>