<svg xmlns="http://www.w3.org/2000/svg" width="20.82" height="20.155" viewBox="0 0 20.82 20.155">
  <g id="settings" transform="translate(0 -0.333)">
    <path id="Path" d="M2.115,9.231a2.163,2.163,0,0,1,1.442-.355l5.689-5.69L6.06,0,.37,5.69A2.148,2.148,0,0,1,0,7.15Z" transform="translate(11.575 0.333)" fill="#fff"/>
    <path id="Path-2" data-name="Path" d="M3.1,3.614,2.9,3.407l-1.079.872L0,7.142l.465.465L3.33,5.791,4.2,4.715l-.207-.209L7.613.887,6.714,0Z" transform="translate(0.664 12.881)" fill="#fff"/>
    <path id="Shape" d="M16.18,19.017,5.837,8.673,5.823,8.66A4.44,4.44,0,0,1,.155,3.279L2.668,5.791l2.465-.659.66-2.462L3.279.155a4.435,4.435,0,0,1,5.436,5.48l10.43,10.418a2.1,2.1,0,1,1-2.965,2.964Z" transform="translate(0 0.826)" fill="#fff"/>
  </g>
</svg>
