<svg xmlns="http://www.w3.org/2000/svg" width="218.204" height="38.93" viewBox="0 0 218.204 38.93">
  <g id="Group_34" data-name="Group 34" transform="translate(-50.554 -375.63)">
    <g id="Group_32" data-name="Group 32">
      <path id="Path_4" data-name="Path 4" d="M83.228,388.849a6.267,6.267,0,1,0,6.256,6.277A6.267,6.267,0,0,0,83.228,388.849Z" fill="#ffcd00"/>
      <path id="Path_5" data-name="Path 5" d="M70.05,388.849a6.267,6.267,0,1,0,6.256,6.277A6.267,6.267,0,0,0,70.05,388.849Z" fill="#ffcd00"/>
      <path id="Path_6" data-name="Path 6" d="M70.03,388.163a6.267,6.267,0,1,0-6.257-6.277A6.267,6.267,0,0,0,70.03,388.163Z" fill="#ffcd00"/>
      <path id="Path_7" data-name="Path 7" d="M70.009,402.027a6.267,6.267,0,1,0,6.256,6.277A6.268,6.268,0,0,0,70.009,402.027Z" fill="#ffcd00"/>
      <path id="Path_8" data-name="Path 8" d="M83.208,388.163a6.267,6.267,0,1,0-6.257-6.277A6.266,6.266,0,0,0,83.208,388.163Z" fill="#ffcd00"/>
      <path id="Path_9" data-name="Path 9" d="M83.228,402.027a6.267,6.267,0,1,0,6.256,6.277A6.268,6.268,0,0,0,83.228,402.027Z" fill="#ffcd00"/>
      <path id="Path_10" data-name="Path 10" d="M56.871,388.849a6.267,6.267,0,1,0,6.257,6.277A6.266,6.266,0,0,0,56.871,388.849Z" fill="#ffcd00"/>
      <path id="Path_11" data-name="Path 11" d="M56.851,388.163a6.267,6.267,0,1,0-6.256-6.277A6.268,6.268,0,0,0,56.851,388.163Z" fill="#ffcd00"/>
      <path id="Path_12" data-name="Path 12" d="M56.83,402.027a6.267,6.267,0,1,0,6.257,6.277A6.266,6.266,0,0,0,56.83,402.027Z" fill="#ffcd00"/>
    </g>
    <g id="Group_33" data-name="Group 33">
      <path id="Path_13" data-name="Path 13" d="M111.363,379.615h3.13V405h-2.71l-.229-1.755h-.077a7.113,7.113,0,0,1-2.69,1.545,11.771,11.771,0,0,1-3.645.516q-3.855,0-5.516-2.291t-1.659-7.48q0-5.19,2.022-7.48t6.756-2.291a14.193,14.193,0,0,1,2.5.21,10.985,10.985,0,0,1,2.118.592Zm-4.237,8.97q-3.549,0-4.79,1.488t-1.24,5.458q0,3.855,1.088,5.362t4.065,1.508a10.047,10.047,0,0,0,2.709-.362,8.605,8.605,0,0,0,2.4-1.088v-11.6a9.607,9.607,0,0,0-1.947-.572A12.549,12.549,0,0,0,107.126,388.585Z" fill="#004b87"/>
      <path id="Path_14" data-name="Path 14" d="M133.69,401.332v2.634a11.215,11.215,0,0,1-2.92.935,19.187,19.187,0,0,1-3.912.4q-4.428,0-6.336-2.291t-1.908-7.556q0-5.076,1.984-7.385t6.336-2.31q4.045,0,5.8,1.813t1.756,6.05q0,.764-.038,1.412T134.3,396.6H121.781q.039,3.129,1.279,4.465t4.294,1.336a20.448,20.448,0,0,0,3.435-.3A13.842,13.842,0,0,0,133.69,401.332Zm-2.061-8.129a3.95,3.95,0,0,0-4.695-4.618q-2.824,0-3.988,1.2T121.781,394h9.81c0-.05,0-.171.019-.362S131.629,393.3,131.629,393.2Z" fill="#004b87"/>
      <path id="Path_15" data-name="Path 15" d="M152.7,401.332v2.634a11.2,11.2,0,0,1-2.92.935,19.179,19.179,0,0,1-3.912.4q-4.428,0-6.335-2.291t-1.908-7.556q0-5.076,1.984-7.385t6.336-2.31q4.044,0,5.8,1.813t1.756,6.05c0,.509-.014.98-.038,1.412s-.077.954-.153,1.565H140.788q.038,3.129,1.279,4.465t4.293,1.336a20.439,20.439,0,0,0,3.435-.3A13.825,13.825,0,0,0,152.7,401.332Zm-2.061-8.129a3.95,3.95,0,0,0-4.694-4.618q-2.826,0-3.989,1.2T140.788,394H150.6c0-.05.006-.171.019-.362S150.635,393.3,150.635,393.2Z" fill="#004b87"/>
      <path id="Path_16" data-name="Path 16" d="M160.672,410.8h-3.13V386.142h2.71l.191,1.679h.115a8.37,8.37,0,0,1,2.824-1.526,11.277,11.277,0,0,1,3.511-.535q3.855,0,5.515,2.291t1.66,7.48q0,5.191-2.022,7.48T165.29,405.3a16.009,16.009,0,0,1-2.576-.191,8.584,8.584,0,0,1-2.042-.573Zm10.267-15.267q0-3.893-1.088-5.42t-4.065-1.526a8.945,8.945,0,0,0-2.69.4,9.458,9.458,0,0,0-2.424,1.165v11.488a10.544,10.544,0,0,0,1.966.572,12.232,12.232,0,0,0,2.271.191q3.549,0,4.789-1.469T170.939,395.531Z" fill="#004b87"/>
      <path id="Path_17" data-name="Path 17" d="M191.32,399.233v4.733a9.522,9.522,0,0,1-2.978.992,21.147,21.147,0,0,1-4.236.42q-4.122,0-5.782-2.195t-1.66-7.614q0-5.42,2.137-7.614t7.481-2.195q1.3,0,2.328.057t2.213.211V391.1q-1.87-.153-2.709-.172t-1.832-.019q-2.634,0-3.264.744t-.629,3.912a8.084,8.084,0,0,0,.515,3.664q.514.8,2.385.8a23.291,23.291,0,0,0,3.187-.23A20.2,20.2,0,0,0,191.32,399.233Z" fill="#004b87"/>
      <path id="Path_18" data-name="Path 18" d="M199.41,405h-5.725V379.615h5.725v7.863a14.408,14.408,0,0,1,2.92-1.26,9.924,9.924,0,0,1,2.882-.458,6.67,6.67,0,0,1,4.79,1.527,6.2,6.2,0,0,1,1.583,4.656V405H205.86V392.707a1.589,1.589,0,0,0-.572-1.374,3.138,3.138,0,0,0-1.832-.42,12.714,12.714,0,0,0-2.023.172,18.349,18.349,0,0,0-2.023.438Z" fill="#004b87"/>
      <path id="Path_19" data-name="Path 19" d="M230.4,399.424v4.542a9.7,9.7,0,0,1-3.092.992,24.123,24.123,0,0,1-4.579.42q-4.581,0-6.6-2.309t-2.023-7.5q0-5.076,2.137-7.442T223,385.76q4.5,0,6.355,1.775t1.851,6.279q0,1.221-.038,1.946c-.025.483-.076,1.044-.152,1.679H219.867a2.663,2.663,0,0,0,.84,2.176,5.092,5.092,0,0,0,2.938.611,28.9,28.9,0,0,0,3.741-.249A22.9,22.9,0,0,0,230.4,399.424Zm-7.4-8.778a3.614,3.614,0,0,0-2.48.63,3.458,3.458,0,0,0-.649,2.461h6.145v-.84a2.268,2.268,0,0,0-.63-1.793A4.231,4.231,0,0,0,223,390.646Z" fill="#004b87"/>
      <path id="Path_20" data-name="Path 20" d="M247.843,399.233v4.733a9.514,9.514,0,0,1-2.977.992,21.164,21.164,0,0,1-4.237.42q-4.12,0-5.782-2.195t-1.66-7.614q0-5.42,2.138-7.614t7.48-2.195q1.3,0,2.328.057t2.214.211V391.1q-1.87-.153-2.71-.172t-1.832-.019q-2.632,0-3.263.744t-.63,3.912a8.1,8.1,0,0,0,.515,3.664q.516.8,2.386.8A23.3,23.3,0,0,0,245,399.8,20.186,20.186,0,0,0,247.843,399.233Z" fill="#004b87"/>
      <path id="Path_21" data-name="Path 21" d="M255.934,397.668V405h-5.725V379.615h5.725v13.626h.878l4.77-7.1h6.794l-6.641,9.084,7.023,9.77h-6.985l-4.961-7.328Z" fill="#004b87"/>
    </g>
  </g>
</svg>
