<svg xmlns="http://www.w3.org/2000/svg" width="26" height="20.949" viewBox="0 0 26 20.949">
  <g id="dashboard" transform="translate(0 -0.026)">
    <path id="Shape" d="M.891,11.705a3.121,3.121,0,0,1,0-4.367c.819-.831,8.442-6.11,9.961-7.16A1,1,0,0,1,12.143.3a1.04,1.04,0,0,1,.121,1.308C11.227,3.15,6.019,10.876,5.2,11.705a3.021,3.021,0,0,1-4.309,0Z" transform="translate(9.955 3.68)" fill="#fff"/>
    <path id="Path" d="M4.684,17.964l-1.254.62A11.2,11.2,0,0,1,2.745,9.23l1.437.7a1,1,0,0,0,.439.1,1.015,1.015,0,0,0,.916-.584A1.036,1.036,0,0,0,5.06,8.072l-1.418-.69a10.968,10.968,0,0,1,8.342-5.276V3.654a1.016,1.016,0,1,0,2.031,0V2.105a10.728,10.728,0,0,1,3.492.932,1.01,1.01,0,0,0,1.344-.515,1.035,1.035,0,0,0-.508-1.362,12.876,12.876,0,0,0-14.536,2.7A13.28,13.28,0,0,0,2.2,20.491a1.012,1.012,0,0,0,.845.457,1,1,0,0,0,.445-.1l2.082-1.029a1.036,1.036,0,0,0,.468-1.377A1.01,1.01,0,0,0,4.684,17.964Z" transform="translate(0 0.026)" fill="#fff"/>
    <path id="Path-2" data-name="Path" d="M5.05.606A1.01,1.01,0,0,0,3.706.091,1.035,1.035,0,0,0,3.2,1.453a11.157,11.157,0,0,1,.966,4.569,11.156,11.156,0,0,1-1.4,5.416l-1.309-.632A1.01,1.01,0,0,0,.1,11.293a1.036,1.036,0,0,0,.48,1.372l2.133,1.029a1,1,0,0,0,.436.1,1.012,1.012,0,0,0,.845-.457A13.251,13.251,0,0,0,6.2,6.022,13.226,13.226,0,0,0,5.05.606Z" transform="translate(19.804 7.18)" fill="#fff"/>
  </g>
</svg>
