<svg id="Capa_1" enable-background="new 0 0 512 512" height="512" viewBox="0 0 512 512" width="512" xmlns="http://www.w3.org/2000/svg"><g><path d="m475.959 111.114c-.088-2.513-1.131-4.952-2.912-6.734l-101.451-101.451c-1.853-1.853-4.452-2.929-7.072-2.929h-253.439c-5.523 0-10.001 4.478-10.001 10.001v53.395h-32.954c-17.703 0-32.106 14.403-32.106 32.106v90.371c0 17.703 14.403 32.105 32.106 32.105h32.954v283.955c0 5.523 4.478 10.001 10.001 10.001h133.746c5.523 0 10.001-4.478 10.001-10.001s-4.478-10.001-10.001-10.001h-123.744v-273.954h162.878c17.47-.069 32.106-14.589 32.106-32.105v-90.371c0-17.703-14.403-32.106-32.106-32.106h-162.878v-43.394h233.436v91.45c0 5.523 4.478 10.001 10.001 10.001h91.45v370.48h-122.23c-5.523 0-10.001 4.478-10.001 10.001s4.478 10.001 10.001 10.001h132.232c5.523 0 10.001-4.478 10.001-10.001v-390.482c-.001-.113-.014-.225-.018-.338zm-407.829 86.862c-6.674 0-12.104-5.429-12.104-12.103v-90.371c0-6.674 5.43-12.104 12.104-12.104l215.835.002c6.671 0 12.098 5.431 12.098 12.108v90.362c0 6.572-5.517 12.107-12.099 12.107zm306.395-96.525v-67.305l67.304 67.304z"/><path d="m299.305 498.235c-1.616-3.945-5.724-6.464-9.969-6.145-4.346.327-8.054 3.523-9.011 7.777-1.965 8.731 8.17 15.484 15.502 10.359 3.781-2.643 5.253-7.733 3.478-11.991z"/><path d="m262.378 129.995h-16.018c-5.248 0-9.501 4.253-9.501 9.501s4.253 9.501 9.501 9.501h4.666c-1.756 4.041-5.164 7.771-11.759 7.771-9.524 0-17.273-7.748-17.273-17.272 0-9.525 7.749-17.272 17.273-17.272 3.463 0 6.801 1.018 9.65 2.944 4.347 2.938 10.255 1.794 13.192-2.554s1.794-10.254-2.554-13.192c-6.004-4.056-13.019-6.2-20.288-6.2-20.002 0-36.276 16.272-36.276 36.275s16.273 36.275 36.276 36.275c19.202 0 32.613-14.917 32.613-36.275-.001-5.249-4.255-9.502-9.502-9.502z"/><path d="m164.793 103.22h-14.91c-5.171 0-9.501 4.33-9.501 9.501v53.549c0 5.248 4.253 9.501 9.501 9.501s9.501-4.253 9.501-9.501v-13.809c2.095-.009 4.087-.016 5.409-.016 13.734 0 24.908-11.041 24.908-24.612s-11.174-24.613-24.908-24.613zm0 30.224c-1.313 0-3.279.007-5.355.016-.01-2.183-.017-4.261-.017-5.626 0-1.179-.004-3.312-.01-5.611h5.381c3.202 0 5.906 2.57 5.906 5.611.001 3.041-2.704 5.61-5.905 5.61z"/><path d="m419.482 431.337v-154.811c0-5.523-4.478-10.001-10.001-10.001h-237.284c-5.523 0-10.001 4.478-10.001 10.001v154.811c0 5.523 4.478 10.001 10.001 10.001h237.284c5.523 0 10.001-4.478 10.001-10.001zm-20.002-144.81v79.455l-23.433-25.13c-1.892-2.029-4.541-3.18-7.314-3.18s-5.422 1.152-7.314 3.18l-34.382 36.87-60.58-64.964c-1.892-2.029-4.541-3.18-7.314-3.18-2.774 0-5.422 1.152-7.314 3.18l-69.63 74.669v-100.9zm0 134.809h-217.282v-4.579l76.944-82.513 60.58 64.964c1.892 2.029 4.541 3.18 7.314 3.18s5.422-1.151 7.314-3.18l34.382-36.87 30.748 32.973z"/><path d="m317.826 315.995c2.096 5.027 8.021 7.503 13.062 5.411 5.027-2.087 7.5-8.028 5.411-13.062-2.089-5.033-8.024-7.497-13.062-5.411-5.029 2.082-7.505 8.03-5.411 13.062z"/><path d="m110.653 103.235c-5.248 0-9.501 4.253-9.501 9.501v42.797c0 .517-.893 1.529-2.621.249-2.845-2.107-8.478-5.925-14.155.457-5.761 6.851.675 12.937.675 12.937 2.961 2.98 8.698 6.645 15.438 6.645 2.947 0 6.087-.701 9.268-2.467 6.414-3.56 10.398-10.389 10.398-17.821v-42.797c-.001-5.247-4.255-9.501-9.502-9.501z"/></g></svg>