<svg xmlns="http://www.w3.org/2000/svg" width="10" height="18" viewBox="0 0 10 18">
  <g id="Next" transform="translate(10.6)">
    <g id="Left_Arrow" data-name="Left Arrow" transform="translate(-0.6 0)">
      <path id="Path" d="M-3.867,8.962-9.534,2.914a1.791,1.791,0,0,1,0-2.409A1.552,1.552,0,0,1-8.4,0,1.552,1.552,0,0,1-7.261.505L-.474,7.749A1.768,1.768,0,0,1,0,8.962a1.768,1.768,0,0,1-.474,1.213L-7.261,17.5A1.55,1.55,0,0,1-8.4,18a1.55,1.55,0,0,1-1.137-.5,1.791,1.791,0,0,1,0-2.409Z" fill="#a3aeb6"/>
    </g>
  </g>
</svg>
