<svg xmlns="http://www.w3.org/2000/svg" width="21.922" height="29.85" viewBox="0 0 21.922 29.85">
  <g id="bell" transform="translate(-0.006 -0.081)">
    <path id="Path" d="M3.506,2.851V1.857A1.8,1.8,0,0,0,1.769,0,1.8,1.8,0,0,0,0,1.822V2.851A9.583,9.583,0,0,1,3.506,2.851Z" transform="translate(9.215 0.081)" fill="#a3aeb6"/>
    <path id="Path-2" data-name="Path" d="M3.463,3.338A3.544,3.544,0,0,0,6.925,0H0A3.544,3.544,0,0,0,3.463,3.338Z" transform="translate(7.505 26.594)" fill="#a3aeb6"/>
    <path id="Path-3" data-name="Path" d="M17.979,14.611a.337.337,0,0,0,.056-.009V9.588C18.035,4.3,14,0,9.018,0S0,4.3,0,9.588V14.6a.337.337,0,0,0,.056.009Z" transform="translate(1.95 3.912)" fill="#a3aeb6"/>
    <path id="Path-4" data-name="Path" d="M1.981,0H19.941a2.031,2.031,0,0,1,1.981,2.077V3.711a2.03,2.03,0,0,1-1.981,2.077H1.981A2.03,2.03,0,0,1,0,3.711V2.077A2.031,2.031,0,0,1,1.981,0Z" transform="translate(0.006 19.665)" fill="#a3aeb6"/>
  </g>
</svg>
